<?xml version="1.0" standalone="no"?>
<!DOCTYPE svg PUBLIC "-//W3C//DTD SVG 20010904//EN"
 "http://www.w3.org/TR/2001/REC-SVG-20010904/DTD/svg10.dtd">
<svg version="1.0" xmlns="http://www.w3.org/2000/svg"
 width="810.000000pt" height="855.000000pt" viewBox="0 0 810.000000 855.000000"
 preserveAspectRatio="xMidYMid meet">

<g transform="translate(0.000000,855.000000) scale(0.100000,-0.100000)"
fill="#000000" stroke="none">
<path d="M4720 8101 c-170 -55 -408 -211 -579 -379 -63 -63 -222 -274 -292
-389 -8 -13 -16 -23 -20 -23 -3 0 -13 27 -23 60 -37 123 -134 295 -218 386
-49 53 -137 115 -187 132 -75 26 -155 11 -226 -44 -34 -25 -135 -143 -181
-209 -58 -84 -137 -242 -170 -340 -36 -105 -38 -117 -42 -265 -6 -245 32 -400
140 -565 96 -148 233 -261 371 -305 22 -7 35 -15 30 -19 -15 -14 -169 -41
-199 -36 -39 8 -169 -27 -247 -66 -35 -17 -102 -60 -149 -95 -99 -74 -298
-260 -298 -279 0 -7 -21 -43 -47 -81 -226 -336 -254 -745 -68 -1023 63 -96
228 -241 357 -314 21 -12 38 -25 38 -30 0 -14 -143 -157 -179 -179 -83 -49
-195 -178 -314 -358 -101 -154 -156 -268 -237 -484 -135 -362 -178 -572 -187
-901 -13 -461 59 -855 185 -1010 62 -77 110 -105 183 -105 44 0 64 6 100 28
81 52 175 167 270 330 l36 62 23 -62 c61 -171 135 -222 235 -165 35 20 136
136 147 169 3 8 14 2 30 -16 21 -25 29 -28 54 -21 40 11 70 7 108 -16 18 -10
59 -28 92 -39 61 -22 357 -93 432 -105 34 -5 42 -10 38 -23 -3 -10 -14 -87
-26 -172 -11 -85 -22 -164 -25 -175 -4 -21 -165 -98 -324 -156 -200 -72 -477
-205 -517 -250 -19 -21 -11 -55 16 -64 11 -4 34 4 58 18 94 60 333 167 472
212 72 23 292 111 340 135 21 11 41 27 45 37 3 10 19 105 35 211 15 106 30
195 33 198 3 3 83 -4 178 -16 243 -29 598 -38 698 -16 41 9 76 14 78 12 2 -2
-1 -32 -6 -67 -6 -35 -13 -139 -17 -231 l-7 -167 34 -33 c19 -18 49 -44 68
-58 l33 -26 -11 -54 c-8 -39 -9 -111 -3 -242 7 -162 11 -190 27 -208 40 -44
106 1 84 57 -5 13 -9 107 -9 209 l0 185 48 -27 c164 -93 261 -154 296 -187 22
-20 47 -35 54 -32 8 3 15 5 17 5 3 0 9 9 15 19 7 14 7 27 -2 46 -13 28 -165
134 -330 230 -54 31 -102 64 -108 74 -5 10 -20 21 -32 25 -13 3 -34 16 -48 29
l-26 23 7 174 c4 96 11 195 17 220 6 25 13 57 16 71 4 19 25 39 73 70 38 24
115 85 173 134 58 50 121 102 140 115 19 14 78 65 130 113 l95 89 7 -39 c4
-21 12 -103 18 -183 16 -199 69 -353 143 -416 40 -33 73 -31 111 9 73 77 133
372 137 671 1 56 4 88 6 71 36 -275 121 -459 240 -519 72 -36 199 -4 256 64
66 77 158 295 194 455 21 92 21 301 0 426 -38 227 -223 704 -387 999 -151 272
-347 533 -499 663 -134 116 -201 168 -234 182 l-28 11 60 52 c64 56 218 229
269 304 51 74 109 199 138 294 32 109 44 312 24 403 -40 181 -128 364 -259
536 -84 111 -243 287 -325 356 -107 92 -290 179 -376 179 -16 0 -30 3 -30 7 0
41 313 480 514 721 69 82 196 241 257 320 84 110 131 252 109 331 -22 82 -88
131 -175 131 -208 0 -721 -326 -1097 -698 -65 -64 -118 -114 -118 -111 0 8 76
145 160 289 116 198 241 476 256 567 4 26 0 70 -11 117 l-16 76 -42 -1 c-23 0
-67 -8 -97 -18z m710 -365 c0 -2 -7 -7 -16 -10 -8 -3 -12 -2 -9 4 6 10 25 14
25 6z m-2593 -918 c-3 -8 -6 -5 -6 6 -1 11 2 17 5 13 3 -3 4 -12 1 -19z m2301
-526 c157 -65 268 -155 435 -356 121 -144 173 -219 235 -336 99 -186 140 -360
122 -518 -29 -256 -139 -456 -377 -683 -149 -143 -247 -207 -385 -253 -119
-40 -251 -31 -362 26 -111 57 -292 224 -398 368 -119 163 -165 263 -203 440
-22 104 -31 341 -16 436 32 196 143 406 272 516 102 87 290 194 404 232 57 18
79 49 90 125 l7 44 52 -6 c28 -3 84 -19 124 -35z m-1534 -204 c137 -35 222
-109 295 -259 121 -250 153 -626 75 -896 -86 -298 -335 -698 -491 -790 -58
-34 -135 -39 -248 -19 -282 53 -581 210 -773 408 -249 254 -238 691 26 1063
81 113 223 252 309 303 172 101 414 180 628 206 40 5 130 -3 179 -16z m486
-885 c0 -98 25 -262 56 -369 37 -128 94 -233 210 -384 l42 -56 -25 -89 c-51
-185 -84 -287 -181 -560 -162 -454 -247 -652 -277 -642 -27 9 -134 198 -181
319 -53 140 -66 219 -73 471 -5 153 -11 231 -19 239 -20 20 -13 49 22 93 65
79 178 260 241 388 103 208 147 364 160 569 8 122 25 136 25 21z m1897 -3085
c-3 -8 -6 -5 -6 6 -1 11 2 17 5 13 3 -3 4 -12 1 -19z m-4060 -380 c-3 -8 -6
-5 -6 6 -1 11 2 17 5 13 3 -3 4 -12 1 -19z m10 -60 c-3 -7 -5 -2 -5 12 0 14 2
19 5 13 2 -7 2 -19 0 -25z m10 -50 c-3 -8 -6 -5 -6 6 -1 11 2 17 5 13 3 -3 4
-12 1 -19z"/>
<path d="M4901 5194 c-45 -57 34 -130 82 -76 24 26 21 68 -5 86 -32 23 -54 20
-77 -10z"/>
<path d="M3062 5113 c-24 -10 -34 -53 -18 -79 21 -31 52 -39 81 -20 61 40 6
127 -63 99z"/>
<path d="M3799 838 c-23 -29 -143 -205 -267 -391 -205 -309 -223 -341 -213
-363 7 -17 19 -24 39 -24 33 0 49 20 259 340 158 239 174 267 212 364 51 126
37 158 -30 74z"/>
</g>
</svg>
