<svg width="135" height="136" xmlns="http://www.w3.org/2000/svg" xmlns:xlink="http://www.w3.org/1999/xlink" xml:space="preserve" overflow="hidden"><defs><clipPath id="clip0"><rect x="347" y="925" width="135" height="136"/></clipPath></defs><g clip-path="url(#clip0)" transform="translate(-347 -925)"><path d="M28.125 19.6875 19.6875 19.6875 19.6875 115.312 115.312 115.312 115.312 106.875 28.125 106.875Z" transform="matrix(1 0 0 1.00741 347 925)"/><path d="M36.5625 49.2188 52.0312 49.2188 52.0312 98.4375 36.5625 98.4375Z" transform="matrix(1 0 0 1.00741 347 925)"/><path d="M57.6562 19.6875 73.125 19.6875 73.125 98.4375 57.6562 98.4375Z" transform="matrix(1 0 0 1.00741 347 925)"/><path d="M78.75 49.2188 94.2188 49.2188 94.2188 98.4375 78.75 98.4375Z" transform="matrix(1 0 0 1.00741 347 925)"/><path d="M99.8438 73.125 115.312 73.125 115.312 98.4375 99.8438 98.4375Z" transform="matrix(1 0 0 1.00741 347 925)"/></g></svg>