<svg width="144" height="144" xmlns="http://www.w3.org/2000/svg" xmlns:xlink="http://www.w3.org/1999/xlink" xml:space="preserve" overflow="hidden"><defs><clipPath id="clip0"><rect x="105" y="913" width="144" height="144"/></clipPath></defs><g clip-path="url(#clip0)" transform="translate(-105 -913)"><path d="M156.885 1009.61 139.755 992.5 156.885 975.385 161.115 979.615 148.245 992.5 161.115 1005.39 156.885 1009.61Z"/><path d="M197.115 1009.61 192.885 1005.39 205.755 992.5 192.885 979.615 197.115 975.385 214.245 992.5 197.115 1009.61Z"/><path d="M166.952 1009.48 181.303 974.854 186.846 977.151 172.495 1011.78Z"/><path d="M117 938.5 117 1031.5 237 1031.5 237 938.5ZM220.5 947.5C222.157 947.5 223.5 948.843 223.5 950.5 223.5 952.157 222.157 953.5 220.5 953.5 218.843 953.5 217.5 952.157 217.5 950.5 217.5 948.843 218.843 947.5 220.5 947.5ZM210 947.5C211.657 947.5 213 948.843 213 950.5 213 952.157 211.657 953.5 210 953.5 208.343 953.5 207 952.157 207 950.5 207 948.843 208.343 947.5 210 947.5ZM199.5 947.5C201.157 947.5 202.5 948.843 202.5 950.5 202.5 952.157 201.157 953.5 199.5 953.5 197.843 953.5 196.5 952.157 196.5 950.5 196.5 948.843 197.843 947.5 199.5 947.5ZM228 1022.5 126 1022.5 126 962.5 228 962.5Z"/></g></svg>