<svg width="128" height="129" xmlns="http://www.w3.org/2000/svg" xmlns:xlink="http://www.w3.org/1999/xlink" xml:space="preserve" overflow="hidden"><defs><clipPath id="clip0"><rect x="585" y="917" width="128" height="129"/></clipPath></defs><g clip-path="url(#clip0)" transform="translate(-585 -917)"><path d="M104.267 63.8667C103.867 63.8667 103.333 63.8667 102.933 63.8667 102.933 63.8667 102.933 63.8667 102.933 63.8667 102.933 57.3333 99.7333 51.3333 94.5333 47.6 89.2 43.8667 82.4 42.9333 76.2667 45.0667 71.2 35.2 60 30.1333 49.3333 32.6667 38.6667 35.2 30.9333 44.8 30.9333 55.8667 30.9333 55.8667 30.9333 56 30.9333 56.1333 23.6 54.9333 16.2667 58 11.7333 63.8667 7.33333 69.8667 6.53333 77.7333 9.6 84.4 12.8 91.0667 19.4667 95.4667 26.8 95.8667L26.8 96 104.133 96C112.933 96 120.133 88.8 120.133 80 120.133 71.2 113.067 63.8667 104.267 63.8667Z" transform="matrix(1 0 0 1.00781 585 917)"/></g></svg>